<svg width="14" height="14" viewBox="0 0 14 14" fill="none" xmlns="http://www.w3.org/2000/svg">
<path fill-rule="evenodd" clip-rule="evenodd" d="M7.0001 13.5959C10.5347 13.5959 13.4001 10.7305 13.4001 7.1959C13.4001 3.66128 10.5347 0.795898 7.0001 0.795898C3.46548 0.795898 0.600098 3.66128 0.600098 7.1959C0.600098 10.7305 3.46548 13.5959 7.0001 13.5959ZM7.8001 3.9959C7.8001 3.55407 7.44193 3.1959 7.0001 3.1959C6.55827 3.1959 6.2001 3.55407 6.2001 3.9959C6.2001 4.43773 6.55827 4.7959 7.0001 4.7959C7.44193 4.7959 7.8001 4.43773 7.8001 3.9959ZM7.8001 6.7959C7.8001 6.35407 7.44193 5.9959 7.0001 5.9959C6.55827 5.9959 6.2001 6.35407 6.2001 6.7959V9.9959C6.2001 10.4377 6.55827 10.7959 7.0001 10.7959C7.44193 10.7959 7.8001 10.4377 7.8001 9.9959V6.7959Z" fill="#C9C9CC"/>
</svg>
